# AST/ASF file generated using VICON BodyLanguage
# -----------------------------------------------
:version 1.10
:name VICON
:units
  mass 1.0
  length 0.45
  angle deg
:documentation
   .ast/.asf automatically generated from VICON data using
   VICON BodyBuilder and BodyLanguage model FoxedUp or BRILLIANT.MOD
:root
   order TX TY TZ RX RY RZ
   axis XYZ
   position 0 0 0  
   orientation 0 0 0 
:bonedata
  begin
     id 1 
     name lhipjoint
     direction 0.714689 -0.624256 0.315473 
     length 2.45343 
     axis 0 0 0  XYZ
  end
  begin
     id 2 
     name lfemur
     direction 0.34202 -0.939693 0  
     length 6.59069  
     axis 0 0 20  XYZ
    dof rx ry rz
    limits (-160.0 20.0)
           (-70.0 70.0)
           (-60.0 70.0)
  end
  begin
     id 3 
     name ltibia
     direction 0.34202 -0.939693 0   
     length 6.73476   
     axis 0 0 20   XYZ
    dof rx
    limits (-10.0 170.0)
  end
  begin
     id 4 
     name lfoot
     direction 0.0718085 -0.197292 0.977711   
     length 1.52607   
     axis -90 7.62852e-016 20   XYZ
    dof rx rz
    limits (-45.0 90.0)
           (-70.0 20.0)
  end
  begin
     id 5 
     name ltoes
     direction 1.53553e-011 -4.22024e-011 1   
     length 0.777832   
     axis -90 7.62852e-016 20   XYZ
    dof rx
    limits (-90.0 20.0)
  end
  begin
     id 6 
     name rhipjoint
     direction -0.727419 -0.612432 0.309497   
     length 2.50079  
     axis 0 0 0  XYZ 
  end
  begin
     id 7 
     name rfemur
     direction -0.34202 -0.939693 0   
     length 6.51665   
     axis 0 0 -20   XYZ
    dof rx ry rz
    limits (-160.0 20.0)
           (-70.0 70.0)
           (-70.0 60.0)
  end
  begin
     id 8 
     name rtibia
     direction -0.34202 -0.939693 0   
     length 6.48919   
     axis 0 0 -20   XYZ
    dof rx
    limits (-10.0 170.0)
 end
 begin
     id 9 
     name rfoot
     direction -0.112205 -0.308282 0.944655   
     length 1.68717  
     axis -90 -7.62852e-016 -20   XYZ
    dof rx rz
    limits (-45.0 90.0)
           (-20.0 70.0)
  end
  begin
     id 10 
     name rtoes
     direction -1.53583e-011 -4.21993e-011 1   
     length 0.846859   
     axis -90 -7.62852e-016 -20   XYZ
    dof rx
    limits (-90.0 20.0)
  end
  begin
     id 11 
     name lowerback
     direction -0.00119603 0.996364 -0.0851956   
     length 1.67242   
     axis 0 0 0   XYZ
    dof rx ry rz
    limits (-20.0 45.0)
           (-30.0 30.0)
           (-30.0 30.0)
  end
  begin
     id 12 
     name upperback
     direction -0.00531001 0.998318 0.0577248   
     length 1.64819   
     axis 0 0 0   XYZ
    dof rx ry rz
    limits (-20.0 45.0)
           (-30.0 30.0)
           (-30.0 30.0)
  end
  begin
     id 13 
     name thorax
     direction -0.00653676 0.995132 0.0983291   
     length 1.67429   
     axis 0 0 0   XYZ
    dof rx ry rz
    limits (-20.0 45.0)
           (-30.0 30.0)
           (-30.0 30.0)
  end
  begin
     id 14 
     name lowerneck
     direction 0.0141424 0.999886 0.00525412   
     length 1.59623   
     axis 0 0 0   XYZ
    dof rx ry rz
    limits (-20.0 45.0)
           (-30.0 30.0)
           (-30.0 30.0)
  end
  begin
     id 15 
     name upperneck
     direction -0.0640064 0.987178 -0.146232   
     length 1.59576   
     axis 0 0 0   XYZ
    dof rx ry rz
    limits (-20.0 45.0)
           (-30.0 30.0)
           (-30.0 30.0)
  end
  begin
     id 16
     name head
     direction -0.0222942 0.998496 -0.0500859  
     length 1.60959  
     axis 0 0 0   XYZ
    dof rx ry rz
    limits (-20.0 45.0)
           (-30.0 30.0)
           (-30.0 30.0)
  end
  begin
     id 17 
     name lclavicle
     direction 0.908549 0.392612 0.142806  
     length 2.80649  
     axis 0 0 0   XYZ
    dof ry rz
    limits (-20.0 10.0)
           (0.0 20.0)
  end
  begin
     id 18 
     name lhumerus
     direction 1 -4.48968e-011 1.08832e-028   
     length 4.2884   
     axis -180 -30 -90   XYZ
    dof rx ry rz
    limits (-60.0 90.0)
           (-90.0 90.0)
           (-90.0 90.0)
  end
  begin
     id 19
     name lradius
     direction 1 -4.48952e-011 -3.02642e-028   
     length 3.06552   
     axis -180 -30 -90   XYZ
    dof rx
    limits (-10.0 170.0)
  end
  begin
     id 20
     name lwrist
     direction 1 -4.49014e-011 1.58672e-027   
     length 1.53276   
     axis -1.65735e-015 90 90   XYZ
    dof ry
    limits (-180.0 0.0)
 end
  begin
     id 21 
     name lhand
     direction 1 -4.48928e-011 3.17344e-027   
     length 0.753045   
     axis -2.02492e-015 90 90   XYZ
    dof rx rz
    limits (-90.0 90.0)
           (-45.0 45.0)
  end
  begin
     id 22 
     name lfingers
     direction 1 -4.48958e-011 6.34687e-027   
     length 0.607124   
     axis -4.04985e-015 90 90   XYZ
    dof rx
    limits (0.0 90.0)
  end
  begin
     id 23
     name lthumb
     direction 0.707107 -6.34905e-011 0.707107   
     length 0.871712   
     axis -90 45 2.85299e-015   XYZ
    dof rx rz
    limits (-45.0 45.0)
           (-45.0 45.0)
  end
  begin
     id 24 
     name rclavicle
     direction -0.885098 0.45949 0.0739604   
     length 2.9478  
     axis 0 0 0   XYZ 
    dof ry rz
    limits (-10.0 20.0)
           (-20.0 0.0)
  end
  begin
     id 25 
     name rhumerus
     direction -1 -4.4898e-011 -2.61739e-027  
     length 4.52172   
     axis -180 30 90   XYZ
    dof rx ry rz
    limits (-90.0 60.0)
           (-90.0 90.0)
           (-90.0 90.0)
  end
  begin
     id 26 
     name rradius
     direction -1 -4.48945e-011 9.02552e-028   
     length 2.8914   
     axis -180 30 90   XYZ
    dof rx
    limits (-10.0 170.0)
  end
  begin
     id 27 
     name rwrist
     direction -1 -4.49018e-011 1.58672e-027   
     length 1.4457   
     axis -1.65735e-015 -90 -90   XYZ
    dof ry
    limits (-180.0 0.0)
  end
  begin
     id 28
     name rhand
     direction -1 -4.48825e-011 3.17344e-027   
     length 0.680541   
     axis -2.02492e-015 -90 -90   XYZ
    dof rx rz
    limits (-90.0 90.0)
           (-45.0 45.0)
  end
  begin
     id 29
     name rfingers
     direction -1 -4.49067e-011 6.34687e-027   
     length 0.54867   
     axis -4.04985e-015 -90 -90   XYZ
    dof rx
    limits (0.0 90.0)
  end
  begin
     id 30
     name rthumb
     direction -0.707107 -6.34833e-011 0.707107   
     length 0.787783   
     axis -90 -45 -2.85299e-015   XYZ
    dof rx rz
    limits (-45.0 45.0)
           (-45.0 45.0)
  end
:hierarchy
  begin
    root lhipjoint rhipjoint lowerback
    lhipjoint lfemur
    lfemur ltibia
    ltibia lfoot
    lfoot ltoes
    rhipjoint rfemur
    rfemur rtibia
    rtibia rfoot
    rfoot rtoes
    lowerback upperback
    upperback thorax
    thorax lowerneck lclavicle rclavicle
    lowerneck upperneck
    upperneck head
    lclavicle lhumerus
    lhumerus lradius
    lradius lwrist
    lwrist lhand lthumb
    lhand lfingers
    rclavicle rhumerus
    rhumerus rradius
    rradius rwrist
    rwrist rhand rthumb
    rhand rfingers
  end

#!OML:ASF E:\emotionWalksFemale\Project 1\Capture day 1\Session 1\Female1.ASF
:FULLY-SPECIFIED
:DEGREES
113
root 8.80653 13.9503 22.4589 199.705 7.36676 -176.238
lowerback 18.9447 0.923317 2.3114
upperback -2.31967 1.87675 0.488289
thorax -13.2499 0.731049 -1.33456
lowerneck -10.4124 -2.16037 -4.64011
upperneck -11.4325 -0.816012 5.9511
head -1.82383 0.26718 2.70318
rclavicle -8.19987e-016 4.42296e-015
rhumerus -31.3665 11.9156 -89.4615
rradius 36.11
rwrist 24.4598
rhand -14.7145 -49.9126
rfingers 7.12502
rthumb 11.4401 -79.5804
lclavicle -8.19987e-016 4.42296e-015
lhumerus -35.6406 2.77167 84.3715
lradius 38.5367
lwrist -8.20507
lhand -8.12482 -35.4511
lfingers 7.12502
lthumb 17.7887 -6.24477
rfemur -47.8255 13.3553 24.1599
rtibia 62.1624
rfoot -30.8146 -25.9863
rtoes -0.444508
lfemur -50.8429 -1.03139 -17.7657
ltibia 67.41
lfoot -37.9861 9.08117
ltoes -26.2514
114
root 8.80824 13.9098 22.4493 200.271 7.27511 -176.128
lowerback 18.8837 0.898032 2.45189
upperback -2.34043 1.87077 0.463323
thorax -13.2332 0.716461 -1.43926
lowerneck -10.4629 -2.22344 -4.63725
upperneck -11.8768 -0.805512 6.0668
head -1.96374 0.301828 2.74616
rclavicle -3.77691e-015 1.49089e-016
rhumerus -31.1134 11.7959 -89.4906
rradius 35.8184
rwrist 24.5064
rhand -15.3631 -49.261
rfingers 7.12502
rthumb 10.8145 -78.9626
lclavicle -3.77691e-015 1.49089e-016
lhumerus -35.5154 3.32274 84.1964
lradius 38.7792
lwrist -7.70589
lhand -7.55079 -34.994
lfingers 7.12502
lthumb 18.341 -5.83869
rfemur -48.7515 13.3534 24.2068
rtibia 62.8473
rfoot -31.1434 -25.9823
rtoes 0.245427
lfemur -51.8309 -0.91435 -17.7025
ltibia 68.1915
lfoot -38.0949 9.63207
ltoes -28.2297
115
root 8.81042 13.8711 22.4366 200.729 7.24531 -176.037
lowerback 19.1093 0.856728 2.28475
upperback -2.40873 1.79364 0.532411
thorax -13.4562 0.692052 -1.25024
lowerneck -10.5959 -2.15502 -4.44811
upperneck -12.2062 -0.656306 6.01118
head -2.06086 0.395935 2.69716
rclavicle 1.49089e-015 1.05356e-014
rhumerus -30.8804 11.9867 -89.5926
rradius 35.4343
rwrist 24.5328
rhand -15.1272 -48.9283
rfingers 7.12502
rthumb 11.042 -78.6178
lclavicle 1.49089e-015 1.05356e-014
lhumerus -35.6901 3.93952 84.0526
lradius 39.279
lwrist -7.01849
lhand -7.29781 -34.7622
lfingers 7.12502
lthumb 18.5844 -5.62992
rfemur -49.5362 13.3934 24.2531
rtibia 63.5302
rfoot -31.4889 -26.0674
rtoes 0.419779
lfemur -52.6736 -0.851102 -17.5717
ltibia 68.9582
lfoot -38.32 9.04498
ltoes -26.4145
116
root 8.81549 13.8274 22.4378 201.394 7.01558 -176.03
lowerback 19.3102 0.918055 2.27397
upperback -2.58943 1.892 0.609606
thorax -13.7862 0.73406 -1.19406
lowerneck -10.5967 -2.3346 -4.7442
upperneck -12.6601 -0.779819 6.12058
head -2.20549 0.375759 2.79169
rclavicle 1.20016e-014 3.37934e-015
rhumerus -30.8957 11.7661 -89.3184
rradius 35.3799
rwrist 24.5569
rhand -11.6014 -49.9499
rfingers 7.12502
rthumb 14.4411 -79.4275
lclavicle 1.20016e-014 3.37934e-015
lhumerus -35.7362 4.37172 84.3127
lradius 39.6168
lwrist -6.2511
lhand -7.41303 -34.4064
lfingers 7.12502
lthumb 18.4735 -5.2636
rfemur -50.6347 13.3407 24.2274
rtibia 64.1795
rfoot -31.5899 -26.2644
rtoes 0.130634
lfemur -53.8789 -0.918678 -17.4266
ltibia 69.6708
lfoot -38.3938 8.2082
ltoes -24.0562
117
root 8.81562 13.7941 22.4163 201.815 7.08504 -175.965
lowerback 19.3191 0.870783 2.15953
upperback -2.57844 1.79222 0.555349
thorax -13.7831 0.693886 -1.15944
lowerneck -10.6619 -2.22239 -4.41373
upperneck -13.0777 -0.560665 6.15754
head -2.34969 0.501656 2.75083
rclavicle -6.11263e-015 3.8763e-015
rhumerus -30.5564 11.8146 -89.5422
rradius 34.9227
rwrist 24.8698
rhand -11.6332 -50.1639
rfingers 7.12502
rthumb 14.4105 -79.6437
lclavicle -6.11263e-015 3.8763e-015
lhumerus -35.5958 5.04797 84.0269
lradius 39.7831
lwrist -5.21295
lhand -7.60775 -34.1627
lfingers 7.12502
lthumb 18.2862 -5.00224
rfemur -51.3381 13.449 24.2147
rtibia 64.8584
rfoot -31.6234 -26.3649
rtoes 0.237742
lfemur -54.5733 -0.820254 -17.3858
ltibia 70.3459
lfoot -38.7205 7.92061
ltoes -23.1412
118
root 8.81037 13.7756 22.3593 201.497 7.55129 -175.795
lowerback 20.2061 1.06155 2.06418
upperback -2.56454 2.06005 0.600606
thorax -14.2892 0.818549 -1.16036
lowerneck -10.8721 -2.25822 -4.63078
upperneck -12.9826 -0.570517 6.2704
head -2.28126 0.511418 2.82758
rclavicle 1.93318e-014 -1.38652e-014
rhumerus -30.6359 11.7678 -89.4801
rradius 34.4013
rwrist 24.7731
rhand -12.8626 -50.0863
rfingers 7.12502
rthumb 13.2257 -79.6467
lclavicle 1.93318e-014 -1.38652e-014
lhumerus -35.8578 5.11451 84.1229
lradius 39.9497
lwrist -4.0091
lhand -8.20257 -34.3605
lfingers 7.12502
lthumb 17.7139 -5.1474
rfemur -50.936 13.7119 24.3548
rtibia 65.4072
rfoot -31.9455 -26.2925
rtoes 0.252339
lfemur -54.0265 -0.475908 -17.4381
ltibia 70.887
lfoot -39.307 7.92911
ltoes -22.6675
119
root 8.81849 13.713 22.3646 202.454 7.17099 -175.965
lowerback 19.2943 0.937009 1.99815
upperback -2.42357 1.83492 0.518341
thorax -13.5891 0.729403 -1.12002
lowerneck -11.1619 -2.31829 -4.53585
upperneck -13.4602 -0.512462 6.39632
head -2.39873 0.585328 2.8574
rclavicle 1.44119e-014 -1.11319e-014
rhumerus -29.9997 11.8907 -89.5457
rradius 34.4712
rwrist 24.2992
rhand -13.8946 -50.011
rfingers 7.12502
rthumb 12.2307 -79.6334
lclavicle 1.44119e-014 -1.11319e-014
lhumerus -35.1406 5.31228 84.0283
lradius 40.0345
lwrist -3.00366
lhand -8.84429 -34.5865
lfingers 7.12502
lthumb 17.0963 -5.31874
rfemur -52.5509 13.2778 24.191
rtibia 66.2495
rfoot -32.192 -26.1982
rtoes 0.422837
lfemur -55.6693 -0.649369 -17.4718
ltibia 71.6092
lfoot -39.0717 7.74986
ltoes -23.2887
120
root 8.819 13.6789 22.3285 202.524 7.31633 -175.902
lowerback 19.9341 0.893379 1.75995
upperback -2.60182 1.72878 0.475755
thorax -14.1858 0.684556 -1.01642
lowerneck -11.1689 -2.13511 -3.97374
upperneck -13.4592 -0.330529 6.19391
head -2.40791 0.651833 2.68644
rclavicle 1.35174e-014 1.19271e-015
rhumerus -30.3113 11.9242 -89.8514
rradius 34.1759
rwrist 24.615
rhand -12.7894 -50.0007
rfingers 7.12502
rthumb 13.2962 -79.5566
lclavicle 1.35174e-014 1.19271e-015
lhumerus -35.2998 6.27263 83.7336
lradius 39.9031
lwrist -2.70183
lhand -9.4051 -34.6343
lfingers 7.12502
lthumb 16.5565 -5.32056
rfemur -52.7688 13.2149 24.289
rtibia 66.9469
rfoot -32.6299 -26.1305
rtoes 0.204081
lfemur -55.8556 -0.431859 -17.5201
ltibia 72.2392
lfoot -39.2495 7.72157
ltoes -23.6916
121
root 8.82029 13.6419 22.2994 202.741 7.36917 -175.915
lowerback 19.946 0.766957 1.39537
upperback -2.60581 1.45849 0.418713
thorax -14.2116 0.586139 -0.787777
lowerneck -11.0143 -1.87117 -3.0156
upperneck -13.7851 -0.050274 5.76648
head -2.5585 0.762265 2.37293
rclavicle 9.54166e-015 1.51076e-014
rhumerus -29.9531 11.6847 -90.1767
rradius 33.2586
rwrist 25.4976
rhand -11.614 -50.1484
rfingers 7.12502
rthumb 14.429 -79.6268
lclavicle 9.54166e-015 1.51076e-014
lhumerus -35.2643 7.45534 83.3407
lradius 39.8328
lwrist -2.67563
lhand -10.229 -34.8287
lfingers 7.12502
lthumb 15.7631 -5.45056
rfemur -53.3036 13.1284 24.2699
rtibia 67.8427
rfoot -32.9577 -26.1249
rtoes -0.343506
lfemur -56.3204 -0.291546 -17.6219
ltibia 72.9911
lfoot -39.655 7.57731
ltoes -23.1717
122
root 8.82513 13.5914 22.285 203.17 7.1619 -176.022
lowerback 20.1452 0.982706 1.59537
upperback -2.59687 1.8107 0.466682
thorax -14.3077 0.732904 -0.963805
lowerneck -11.4837 -2.40762 -3.99457
upperneck -14.0271 -0.554389 6.07223
head -2.53602 0.600148 2.64765
rclavicle -1.91827e-014 -2.09718e-014
rhumerus -29.8348 11.131 -89.4531
rradius 33.4273
rwrist 25.4133
rhand -11.2275 -50.8882
rfingers 7.12502
rthumb 14.8013 -80.3396
lclavicle -1.91827e-014 -2.09718e-014
lhumerus -35.4373 7.09803 84.1878
lradius 40.4611
lwrist -2.16134
lhand -10.7687 -35.2027
lfingers 7.12502
lthumb 15.2433 -5.78433
rfemur -54.2027 12.883 24.1908
rtibia 68.7452
rfoot -33.1749 -26.0313
rtoes -0.454618
lfemur -57.2349 -0.30903 -17.7335
ltibia 73.804
lfoot -39.7531 7.30826
ltoes -22.9891
123
root 8.8349 13.5276 22.2903 203.959 6.6335 -176.336
lowerback 19.8377 0.83353 1.41713
upperback -2.77598 1.55138 0.43184
thorax -14.3461 0.623584 -0.813873
lowerneck -11.3981 -2.41264 -4.06153
upperneck -14.3852 -0.477955 6.18691
head -2.67863 0.661753 2.7052
rclavicle -1.16289e-014 -2.98177e-016
rhumerus -29.9709 11.3196 -89.5556
rradius 33.7761
rwrist 25.0817
rhand -12.4594 -51.31
rfingers 7.12502
rthumb 13.6142 -80.8448
lclavicle -1.16289e-014 -2.98177e-016
lhumerus -35.1143 7.46525 84.2723
lradius 40.2981
lwrist -1.86179
lhand -10.8667 -35.2893
lfingers 7.12502
lthumb 15.1489 -5.86373
rfemur -55.727 12.3371 23.9791
rtibia 69.813
rfoot -33.562 -25.7575
rtoes 0.355249
lfemur -58.8063 -0.611349 -17.8903
ltibia 74.6882
lfoot -39.3718 6.96119
ltoes -23.1982
